<svg xmlns="http://www.w3.org/2000/svg" viewBox="0 0 131.31 110.56"><defs><style>.cls-1{fill:#c9caca;}.cls-2{fill:#f7f8f8;}</style></defs><title>资源 6</title><g id="图层_2" data-name="图层 2"><g id="图层_1-2" data-name="图层 1"><polyline class="cls-1" points="126.38 0.44 126.74 0.26 127.12 0.13 127.5 0.04 127.9 0 128.32 0.02 128.72 0.07 129.1 0.18 129.46 0.35 129.81 0.55 130.13 0.78 130.43 1.07 130.68 1.38 130.9 1.73 131.06 2.09 131.19 2.48 131.26 2.88 131.28 3.28 131.3 3.28 131.3 27.65 131.28 27.65 131.26 28.16 131.17 28.67 131.04 29.18 130.86 29.65 130.63 30.13 130.34 30.54 130.01 30.95 129.65 31.31 129.25 31.64 128.81 31.93 128.83 31.93 72.57 64.53 72.57 64.55 72.04 64.88 71.55 65.24 71.1 65.64 70.66 66.08 70.26 66.53 69.9 67.03 69.57 67.55 69.28 68.1 69.03 68.66 68.83 69.25 68.67 69.83 68.56 70.45 68.48 71.05 68.47 71.67 68.47 38.74 68.47 71.67 68.47 38.74 68.48 38.12 68.56 37.52 68.67 36.9 68.83 36.32 69.03 35.73 69.28 35.17 69.57 34.62 69.9 34.1 70.26 33.6 70.66 33.15 71.1 32.71 71.55 32.31 72.04 31.95 72.57 31.62 72.57 31.6 126.36 0.42"/><polyline class="cls-1" points="4.93 110.12 4.56 110.31 4.18 110.43 3.8 110.52 3.4 110.56 2.98 110.54 2.58 110.49 2.2 110.38 1.84 110.21 1.5 110.01 1.17 109.78 0.88 109.49 0.63 109.18 0.41 108.83 0.24 108.47 0.12 108.08 0.04 107.68 0.03 107.28 0.01 107.28 0.01 82.91 0.03 82.91 0.04 82.4 0.14 81.89 0.26 81.38 0.44 80.91 0.68 80.44 0.97 80.02 1.3 79.61 1.66 79.25 2.06 78.92 2.49 78.63 2.48 78.63 58.74 46.03 58.74 46.01 59.26 45.68 59.75 45.32 60.21 44.92 60.64 44.48 61.04 44.03 61.41 43.53 61.73 43.01 62.02 42.46 62.28 41.9 62.48 41.31 62.64 40.73 62.75 40.11 62.82 39.51 62.84 38.89 62.84 71.82 62.84 38.89 62.84 71.82 62.82 72.44 62.75 73.04 62.64 73.66 62.48 74.24 62.28 74.83 62.02 75.39 61.73 75.94 61.41 76.46 61.04 76.96 60.64 77.41 60.21 77.85 59.76 78.25 59.27 78.61 58.74 78.94 58.74 78.96 4.94 110.14"/><polyline class="cls-2" points="68.47 71.84 68.49 72.46 68.56 73.06 68.67 73.68 68.84 74.26 69.04 74.85 69.29 75.41 69.58 75.96 69.91 76.48 70.27 76.98 70.67 77.43 71.1 77.87 71.56 78.27 72.05 78.63 72.57 78.96 126.39 110.14 126.39 110.12 126.75 110.31 127.13 110.43 127.51 110.52 127.91 110.56 128.33 110.54 128.73 110.49 129.11 110.38 129.47 110.21 129.82 110.01 130.14 109.78 130.43 109.49 130.69 109.18 130.91 108.83 131.07 108.47 131.2 108.08 131.27 107.68 131.29 107.28 131.31 107.28 131.31 82.91 131.29 82.4 131.2 81.89 131.07 81.38 130.89 80.91 130.65 80.45 130.36 80.02 130.03 79.61 129.67 79.25 129.27 78.92 128.84 78.63 128.86 78.63 72.57 46.03 72.05 45.7 71.56 45.34 71.1 44.94 70.67 44.5 70.27 44.05 69.91 43.56 69.58 43.03 69.29 42.48 69.04 41.92 68.84 41.34 68.67 40.75 68.56 40.13 68.49 39.53 68.47 38.91"/><polyline class="cls-2" points="62.83 38.72 62.81 38.1 62.74 37.5 62.63 36.88 62.47 36.3 62.27 35.71 62.02 35.15 61.73 34.6 61.4 34.08 61.04 33.58 60.64 33.13 60.2 32.69 59.75 32.29 59.26 31.93 58.73 31.6 4.92 0.42 4.92 0.44 4.55 0.26 4.17 0.13 3.79 0.04 3.39 0 2.98 0.02 2.58 0.07 2.19 0.18 1.83 0.35 1.49 0.55 1.16 0.78 0.87 1.07 0.62 1.38 0.4 1.73 0.24 2.09 0.11 2.48 0.04 2.88 0.02 3.28 0 3.28 0 27.65 0.02 28.16 0.11 28.67 0.24 29.18 0.42 29.65 0.65 30.11 0.94 30.54 1.27 30.95 1.63 31.31 2.03 31.64 2.47 31.93 2.45 31.93 58.73 64.53 59.26 64.86 59.75 65.22 60.2 65.62 60.64 66.06 61.04 66.51 61.4 67 61.73 67.53 62.02 68.08 62.27 68.64 62.47 69.22 62.63 69.81 62.74 70.43 62.81 71.03 62.83 71.65"/></g></g></svg>